<svg width="272" height="260" viewBox="0 0 272 260" fill="none" xmlns="http://www.w3.org/2000/svg">
<path d="M197.041 66.794H271.5C268.742 29.2569 237.304 0 199.247 0H1.24222C3.99994 37.5372 35.4381 66.794 73.4948 66.794H76.2526C84.5258 66.794 91.1443 73.4182 91.1443 81.6985C91.1443 89.9787 84.5258 96.603 76.2526 96.603H73.4948C-18.3515 96.603 -29.1618 260 73.4948 260H271.5C268.742 222.463 237.304 193.206 199.247 193.206H196.49C188.216 193.206 181.598 186.582 181.598 178.301C181.598 170.021 188.216 163.397 196.49 163.397H199.247C237.304 163.397 268.742 134.14 271.5 96.603H197.041C188.768 96.603 182.149 89.9787 182.149 81.6985C182.149 73.4182 188.768 66.794 197.041 66.794Z" fill="#B538D6"/>
</svg>
