<svg width="516" height="100" viewBox="0 0 516 100" fill="none" xmlns="http://www.w3.org/2000/svg">
<path d="M69.6235 23.6348H96C95.0231 10.3524 83.8863 0 70.405 0H0.262931C1.23984 13.2824 12.3766 23.6348 25.8579 23.6348H26.8349C29.7656 23.6348 32.1102 25.9788 32.1102 28.9087C32.1102 31.8386 29.7656 34.1826 26.8349 34.1826H25.8579C-6.67801 34.1826 -10.5075 92 25.8579 92H96C95.0231 78.7176 83.8863 68.3652 70.405 68.3652H69.4281C66.4974 68.3652 64.1528 66.0212 64.1528 63.0913C64.1528 60.1614 66.4974 57.8174 69.4281 57.8174H70.405C83.8863 57.8174 95.0231 47.465 96 34.1826H69.6235C66.6927 34.1826 64.3481 31.8386 64.3481 28.9087C64.3481 25.9788 66.6927 23.6348 69.6235 23.6348Z" fill="#B538D6"/>
<path d="M470.495 100C468.424 100 466.481 99.8338 464.666 99.5014C462.876 99.1946 461.393 98.7983 460.217 98.3125L463.899 86.1165C465.816 86.7046 467.542 87.0241 469.076 87.0753C470.636 87.1264 471.978 86.7685 473.103 86.0014C474.254 85.2344 475.187 83.9304 475.903 82.0895L476.862 79.5966L455.73 19H472.912L485.108 62.2614H485.721L498.032 19H515.329L492.433 84.2756C491.333 87.446 489.838 90.2074 487.946 92.5597C486.079 94.9375 483.714 96.7656 480.85 98.044C477.987 99.348 474.535 100 470.495 100Z" fill="#DED9E3"/>
<path d="M393.963 100V19H410.071V28.8949H410.8C411.516 27.3097 412.552 25.6989 413.907 24.0625C415.287 22.4006 417.077 21.0199 419.276 19.9205C421.5 18.7955 424.262 18.233 427.56 18.233C431.855 18.233 435.819 19.358 439.449 21.608C443.08 23.8324 445.982 27.1946 448.155 31.6946C450.328 36.169 451.415 41.7812 451.415 48.5312C451.415 55.1023 450.354 60.6506 448.232 65.1761C446.135 69.6761 443.272 73.0895 439.641 75.4162C436.036 77.7173 431.996 78.8679 427.522 78.8679C424.351 78.8679 421.654 78.3438 419.429 77.2955C417.23 76.2472 415.428 74.9304 414.022 73.3452C412.615 71.7344 411.542 70.1108 410.8 68.4744H410.301V100H393.963ZM409.956 48.4545C409.956 51.9574 410.442 55.0128 411.414 57.6207C412.385 60.2287 413.792 62.2614 415.632 63.7188C417.473 65.1506 419.711 65.8665 422.344 65.8665C425.003 65.8665 427.253 65.1378 429.094 63.6804C430.935 62.1974 432.328 60.152 433.275 57.544C434.246 54.9105 434.732 51.8807 434.732 48.4545C434.732 45.054 434.259 42.0625 433.313 39.4801C432.367 36.8977 430.973 34.8778 429.132 33.4205C427.292 31.9631 425.029 31.2344 422.344 31.2344C419.685 31.2344 417.435 31.9375 415.594 33.3438C413.779 34.75 412.385 36.7443 411.414 39.3267C410.442 41.9091 409.956 44.9517 409.956 48.4545Z" fill="#DED9E3"/>
<path d="M325.62 100V19H341.728V28.8949H342.456C343.172 27.3097 344.208 25.6989 345.563 24.0625C346.944 22.4006 348.733 21.0199 350.932 19.9205C353.157 18.7955 355.918 18.233 359.216 18.233C363.512 18.233 367.475 19.358 371.105 21.608C374.736 23.8324 377.638 27.1946 379.811 31.6946C381.985 36.169 383.071 41.7812 383.071 48.5312C383.071 55.1023 382.01 60.6506 379.888 65.1761C377.792 69.6761 374.928 73.0895 371.297 75.4162C367.692 77.7173 363.652 78.8679 359.178 78.8679C356.007 78.8679 353.31 78.3438 351.086 77.2955C348.887 76.2472 347.084 74.9304 345.678 73.3452C344.272 71.7344 343.198 70.1108 342.456 68.4744H341.958V100H325.62ZM341.613 48.4545C341.613 51.9574 342.098 55.0128 343.07 57.6207C344.042 60.2287 345.448 62.2614 347.289 63.7188C349.13 65.1506 351.367 65.8665 354 65.8665C356.659 65.8665 358.909 65.1378 360.75 63.6804C362.591 62.1974 363.985 60.152 364.931 57.544C365.902 54.9105 366.388 51.8807 366.388 48.4545C366.388 45.054 365.915 42.0625 364.969 39.4801C364.023 36.8977 362.63 34.8778 360.789 33.4205C358.948 31.9631 356.685 31.2344 354 31.2344C351.341 31.2344 349.091 31.9375 347.25 33.3438C345.435 34.75 344.042 36.7443 343.07 39.3267C342.098 41.9091 341.613 44.9517 341.613 48.4545Z" fill="#DED9E3"/>
<path d="M296.213 52.8267V19H312.551V77.9091H296.865V67.2088H296.251C294.922 70.6605 292.71 73.4347 289.616 75.5312C286.548 77.6278 282.803 78.6761 278.379 78.6761C274.442 78.6761 270.977 77.7813 267.986 75.9915C264.994 74.2017 262.655 71.6577 260.967 68.3594C259.305 65.0611 258.462 61.1108 258.436 56.5085V19H274.774V53.5938C274.8 57.071 275.733 59.8196 277.574 61.8395C279.415 63.8594 281.882 64.8693 284.976 64.8693C286.945 64.8693 288.786 64.4219 290.499 63.527C292.212 62.6065 293.592 61.2514 294.641 59.4617C295.714 57.6719 296.239 55.4602 296.213 52.8267Z" fill="#DED9E3"/>
<path d="M207.591 43.8523V77.9091H191.253V19H206.824V29.3935H207.514C208.818 25.9673 211.004 23.2571 214.072 21.2628C217.14 19.2429 220.86 18.233 225.233 18.233C229.324 18.233 232.89 19.1278 235.933 20.9176C238.976 22.7074 241.341 25.2642 243.028 28.5881C244.716 31.8864 245.559 35.8239 245.559 40.4006V77.9091H229.221V43.3153C229.247 39.7102 228.326 36.8977 226.46 34.8778C224.593 32.8324 222.024 31.8097 218.751 31.8097C216.552 31.8097 214.609 32.2827 212.922 33.2287C211.26 34.1747 209.956 35.5554 209.01 37.3707C208.089 39.1605 207.616 41.321 207.591 43.8523Z" fill="#DED9E3"/>
<path d="M179.622 35.7983L164.665 36.7188C164.409 35.4403 163.859 34.2898 163.016 33.267C162.172 32.2188 161.06 31.3878 159.679 30.7741C158.324 30.1349 156.7 29.8153 154.808 29.8153C152.277 29.8153 150.142 30.3523 148.403 31.4261C146.665 32.4744 145.795 33.8807 145.795 35.6449C145.795 37.0511 146.358 38.2401 147.483 39.2117C148.608 40.1832 150.538 40.9631 153.274 41.5511L163.936 43.6989C169.663 44.875 173.933 46.767 176.746 49.375C179.558 51.983 180.964 55.4091 180.964 59.6534C180.964 63.5142 179.827 66.902 177.551 69.8168C175.301 72.7315 172.207 75.0071 168.27 76.6435C164.358 78.2543 159.845 79.0597 154.732 79.0597C146.933 79.0597 140.72 77.4361 136.092 74.1889C131.49 70.9162 128.793 66.4673 128 60.8423L144.07 59.9986C144.555 62.3764 145.732 64.1918 147.598 65.4446C149.464 66.6719 151.855 67.2855 154.77 67.2855C157.634 67.2855 159.935 66.7358 161.673 65.6364C163.438 64.5114 164.332 63.0668 164.358 61.3026C164.332 59.8196 163.706 58.6051 162.479 57.6591C161.251 56.6875 159.359 55.946 156.803 55.4347L146.601 53.402C140.848 52.2514 136.565 50.2571 133.753 47.419C130.966 44.581 129.572 40.9631 129.572 36.5653C129.572 32.7812 130.595 29.5213 132.641 26.7855C134.712 24.0497 137.614 21.9403 141.347 20.4574C145.105 18.9744 149.503 18.233 154.54 18.233C161.98 18.233 167.835 19.8054 172.105 22.9503C176.401 26.0952 178.906 30.3778 179.622 35.7983Z" fill="#DED9E3"/>
</svg>
